SplineFontDB: 3.2
FontName: galar
FullName: galar
FamilyName: galar
Weight: Regular
Copyright: Copyright (c) 2022, Administrator
UComments: "2022-4-15: Created with FontForge (http://fontforge.org)"
Version: 001.000
ItalicAngle: 0
UnderlinePosition: -100
UnderlineWidth: 50
Ascent: 800
Descent: 200
InvalidEm: 0
LayerCount: 2
Layer: 0 0 "Back" 1
Layer: 1 0 "Fore" 0
XUID: [1021 988 142531715 29326]
OS2Version: 0
OS2_WeightWidthSlopeOnly: 0
OS2_UseTypoMetrics: 1
CreationTime: 1649999077
ModificationTime: 1650051063
OS2TypoAscent: 0
OS2TypoAOffset: 1
OS2TypoDescent: 0
OS2TypoDOffset: 1
OS2TypoLinegap: 0
OS2WinAscent: 0
OS2WinAOffset: 1
OS2WinDescent: 0
OS2WinDOffset: 1
HheadAscent: 0
HheadAOffset: 1
HheadDescent: 0
HheadDOffset: 1
OS2Vendor: 'PfEd'
MarkAttachClasses: 1
DEI: 91125
Encoding: Custom
UnicodeInterp: none
NameList: AGL For New Fonts
DisplaySize: -96
AntiAlias: 1
FitToEm: 0
WinInfo: 0 19 7
BeginPrivate: 0
EndPrivate
Grid
-1000 475 m 0
 2000 475 l 1024
  Named: "Cap475"
775 1295 m 0
 775 -705 l 1024
  Named: "Cap"
225 1299 m 0
 225 -701 l 1024
  Named: "Cap"
-1000 700 m 0
 2000 700 l 1024
  Named: "low700"
300 1300 m 0
 300 -700 l 1024
  Named: "Cap300"
700 1300 m 4
 700 -700 l 1028
  Named: "Cap700"
-1000 350 m 0
 2000 350 l 1024
  Named: "x350"
500 1300 m 0
 500 -700 l 1024
  Named: "y500"
250 1300 m 0
 250 -700 l 1024
  Named: "250"
750 1300 m 0
 750 -700 l 1024
  Named: "750"
650 1300 m 0
 650 -700 l 1024
  Named: "low650"
350 1300 m 0
 350 -700 l 1024
  Named: "low350"
-1000 750 m 0
 2000 750 l 1024
  Named: "Caps750"
-1000 500 m 0
 2000 500 l 1024
  Named: "mid500"
-1000 200 m 0
 2000 200 l 1024
  Named: "Btm200"
-1000 -50 m 0
 2000 -50 l 1024
  Named: "dead-50"
EndSplineSet
BeginChars: 256 43

StartChar: NameMe.19
Encoding: 19 -1 0
Width: 1000
Flags: HW
LayerCount: 2
Back
SplineSet
500 500 m 4
 350 350 l 5
 700 -0 l 1028
500 530 m 4
 517 530 530 517 530 500 c 4
 530 492 526 484 521 479 c 6
 392 350 l 5
 721 21 l 6
 726 16 730 8 730 -0 c 4
 730 -17 717 -30 700 -30 c 4
 692 -30 684 -26 679 -21 c 6
 329 329 l 6
 324 334 320 342 320 350 c 4
 320 358 324 366 329 371 c 6
 479 521 l 6
 484 526 492 530 500 530 c 4
EndSplineSet
Fore
SplineSet
350 350 m 5
 750 -50 l 1028
500 500 m 4
 350 350 l 1036
350 350 m 1053
500 530 m 4
 516.557617188 530 530 516.557617188 530 500 c 4
 530 491.721679688 526.639648438 484.221679688 521.208984375 478.791015625 c 6
 392.444335938 350.026367188 l 5
 771.182617188 -28.7646484375 l 6
 776.627929688 -34.1962890625 780 -41.7080078125 780 -50 c 4
 780 -66.5576171875 766.557617188 -80 750 -80 c 4
 741.735351562 -80 734.24609375 -76.650390625 728.817382812 -71.2353515625 c 6
 328.817382812 328.764648438 l 6
 323.37890625 334.203125 320 341.708007812 320 350 c 4
 320 358.278320312 323.360351562 365.778320312 328.791015625 371.208984375 c 6
 478.791015625 521.208984375 l 6
 484.221679688 526.639648438 491.721679688 530 500 530 c 4
EndSplineSet
EndChar

StartChar: NameMe.20
Encoding: 20 -1 1
Width: 1000
Flags: HW
LayerCount: 2
Back
SplineSet
320 350 m 28
 320 449 401 530 500 530 c 28
 599 530 680 449 680 350 c 28
 680 251 599 170 500 170 c 28
 401 170 320 251 320 350 c 28
380 350 m 28
 380 284 434 230 500 230 c 28
 566 230 620 284 620 350 c 28
 620 416 566 470 500 470 c 28
 434 470 380 416 380 350 c 28
500 500 m 12
 400 600 l 1053
530 500 m 4
 530 483.44255 516.55745 470 500 470 c 4
 491.721275 470 484.221275 473.3606375 478.79095625 478.79095625 c 6
 378.79095625 578.79095625 l 6
 373.3606375 584.221275 370 591.721275 370 600 c 4
 370 616.55745 383.44255 630 400 630 c 4
 408.278725 630 415.778725 626.6393625 421.20904375 621.20904375 c 6
 521.20904375 521.20904375 l 6
 526.6393625 515.778725 530 508.278725 530 500 c 4
EndSplineSet
Fore
SplineSet
380 350 m 0
 380 284 434 230 500 230 c 0
 566 230 620 284 620 350 c 0
 620 416 566 470 500 470 c 0
 434 470 380 416 380 350 c 0
512.877375048 529.540712452 m 1
 605.928353471 522.882383952 680 444.671374924 680 350 c 0
 680 251 599 170 500 170 c 0
 401 170 320 251 320 350 c 0
 320 427.419248808 369.535042034 493.830710498 438.476326766 519.105585734 c 1
 378.79095625 578.79095625 l 2
 373.3606375 584.221275 370 591.721275 370 600 c 0
 370 616.55745 383.44255 630 400 630 c 0
 408.278725 630 415.778725 626.6393625 421.20904375 621.20904375 c 2
 512.877375048 529.540712452 l 1
EndSplineSet
EndChar

StartChar: NameMe.21
Encoding: 21 -1 2
Width: 1000
Flags: H
LayerCount: 2
Fore
SplineSet
350 200 m 25
 350 350 l 26
 350 433 417 500 500 500 c 28
 583 500 650 433 650 350 c 18
 650 -50 l 1024
380 200 m 2
 380 183.44255 366.55745 170 350 170 c 0
 333.44255 170 320 183.44255 320 200 c 2
 320 350 l 2
 320 449.527340885 400.472659115 530 500 530 c 0
 599.527340885 530 680 449.527340885 680 350 c 0
 680 -50 680 -50 680 -50 c 2
 680 -66.55745 666.55745 -80 650 -80 c 0
 633.44255 -80 620 -66.55745 620 -50 c 2
 620 350 l 2
 620 416.472659115 566.472659115 470 500 470 c 0
 433.527340885 470 380 416.472659115 380 350 c 2
 380 200 l 2
EndSplineSet
EndChar

StartChar: NameMe.22
Encoding: 22 -1 3
Width: 1000
Flags: H
LayerCount: 2
Fore
SplineSet
300 200 m 17
 300 500 l 1
 500 500 l 1
 500 200 l 1
 700 200 l 1
 700 500 l 1025
530 230 m 1
 670 230 l 1
 670 500 l 2
 670 516.557617188 683.442382812 530 700 530 c 0
 716.557617188 530 730 516.557617188 730 500 c 2
 730 200 l 2
 730 183.442382812 716.557617188 170 700 170 c 2
 500 170 l 2
 500 170 470 183.44255 470 200 c 2
 470 470 l 1
 330 470 l 1
 330 200 l 2
 330 183.442382812 316.557617188 170 300 170 c 0
 283.442382812 170 270 183.442382812 270 200 c 2
 270 500 l 2
 270 516.557617188 283.442382812 530 300 530 c 2
 500 530 l 2
 511.16882032 530 530 516.55745 530 500 c 2
 530 230 l 1
EndSplineSet
EndChar

StartChar: NameMe.23
Encoding: 23 -1 4
Width: 1000
Flags: HW
LayerCount: 2
Back
SplineSet
500 700 m 0
 500 441 l 1024
410 700 m 2
 410 749.672136195 450.32765 790 500 790 c 0
 549.67235 790 590 749.672136195 590 700 c 2
 590 441 l 2
 590 391.328125 549.671875 351 500 351 c 0
 450.328125 351 410 391.328125 410 441 c 2
 410 700 l 2
60 487.436523438 m 0
 112.890625 464.208984375 150 411.288085938 150 350 c 0
 150 267.40234375 82.59765625 200 0 200 c 0
 -82.59765625 200 -150 267.40234375 -150 350 c 0
 -150 411.288085938 -112.890625 464.208984375 -60 487.436523438 c 1024
60 487.436523438 m 1025
-60 487.436523438 m 1025
850 350 m 4
 850 432.59765625 917.40234375 500 1000 500 c 4
 1082.59765625 500 1150 432.59765625 1150 350 c 4
 1150 267.40234375 1082.59765625 200 1000 200 c 4
 917.40234375 200 850 267.40234375 850 350 c 4
EndSplineSet
Fore
SplineSet
590 469.859475781 m 0
 626.39288898 442.442571209 650 398.882301596 650 350 c 0
 650 267.40234375 582.59765625 200 500 200 c 0
 417.40234375 200 350 267.40234375 350 350 c 0
 350 398.882301596 373.60711102 442.442571209 410 469.859475781 c 1024
590 469.859475781 m 1025
410 469.859475781 m 1025
380 350 m 0
 380 283.986624765 433.986624765 230 500 230 c 0
 566.013375235 230 620 283.986624765 620 350 c 0
 620 389.035989514 601.125657286 423.92203685 571.973479073 445.884087967 c 0
 564.703716455 451.360827889 560 460.065180591 560 469.859475781 c 0
 560 486.416925781 573.44255 499.859475781 590 499.859475781 c 0
 596.76315481 499.859475781 603.006605857 497.61666098 608.026520927 493.834863594 c 0
 651.660120675 460.963105569 680 408.728613679 680 350 c 0
 680 250.818062735 599.181937265 170 500 170 c 0
 400.818062735 170 320 250.818062735 320 350 c 0
 320 408.723367521 348.334816415 460.953773427 391.973479073 493.834863594 c 0
 396.993394143 497.61666098 403.23684519 499.859475781 410 499.859475781 c 0
 426.55745 499.859475781 440 486.416925781 440 469.859475781 c 0
 440 460.065180591 435.296283545 451.360827889 428.026520927 445.884087967 c 0
 398.874342714 423.92203685 380 389.035989514 380 350 c 0
EndSplineSet
EndChar

StartChar: NameMe.24
Encoding: 24 -1 5
Width: 1000
Flags: H
LayerCount: 2
Fore
SplineSet
350 200 m 25
 650 200 l 1024
350 500 m 0
 650 500 l 1025
350 470 m 2
 333.44255 470 320 483.44255 320 500 c 0
 320 516.55745 333.44255 530 350 530 c 2
 650 530 l 2
 666.55745 530 680 516.55745 680 500 c 0
 680 483.44255 666.55745 470 650 470 c 2
 350 470 l 2
350 170 m 2
 333.44255 170 320 183.44255 320 200 c 0
 320 216.55745 333.44255 230 350 230 c 2
 650 230 l 2
 666.55745 230 680 216.55745 680 200 c 0
 680 183.44255 666.55745 170 650 170 c 2
 350 170 l 2
EndSplineSet
EndChar

StartChar: NameMe.25
Encoding: 25 -1 6
Width: 1000
Flags: H
LayerCount: 2
Fore
SplineSet
500 700 m 24
 500 500 l 1024
350 200 m 1
 350 350 l 10
 350 433 417 500 500 500 c 24
 588 500 650 433 650 350 c 18
 650 200 l 1025
380 200 m 2
 380 183.44255 366.55745 170 350 170 c 0
 333.44255 170 320 183.44255 320 200 c 2
 320 350 l 2
 320 439.304108156 384.789768131 513.267000709 470 527.519373266 c 1
 470 700 l 2
 470 716.55745 483.44255 730 500 730 c 0
 516.55745 730 530 716.55745 530 700 c 2
 530 527.699329326 l 1
 618.792675288 513.82580848 680 438.927372562 680 350 c 2
 680 200 l 2
 680 183.44255 666.55745 170 650 170 c 0
 633.44255 170 620 183.44255 620 200 c 2
 620 350 l 2
 620 417.371659191 571.28976301 470 500 470 c 0
 433.527340885 470 380 416.472659115 380 350 c 2
 380 200 l 2
EndSplineSet
EndChar

StartChar: NameMe.26
Encoding: 26 -1 7
Width: 1000
Flags: H
LayerCount: 2
Fore
SplineSet
650 500 m 1
 650 200 l 1025
350 500 m 1
 500 500 l 1
 500 200 l 1025
470 470 m 1
 350 470 l 2
 333.442382812 470 320 483.442382812 320 500 c 0
 320 516.557617188 333.442382812 530 350 530 c 2
 500 530 l 2
 516.553718658 530 530 516.55745 530 500 c 2
 530 200 l 2
 530 183.44255 516.55745 170 500 170 c 0
 483.44255 170 470 183.44255 470 200 c 2
 470 470 l 1
620 500 m 2
 620 516.557617188 633.442382812 530 650 530 c 0
 666.557617188 530 680 516.557617188 680 500 c 2
 680 200 l 2
 680 183.442382812 666.557617188 170 650 170 c 0
 633.442382812 170 620 183.442382812 620 200 c 2
 620 500 l 2
EndSplineSet
EndChar

StartChar: NameMe.27
Encoding: 27 -1 8
Width: 1000
Flags: H
LayerCount: 2
Fore
SplineSet
350 200 m 5
 500 460 l 13
 650 200 l 5
 650 700 l 1025
620 700 m 2
 620 716.55745 633.44255 730 650 730 c 0
 666.55745 730 680 716.55745 680 700 c 2
 680 200 l 2
 680 183.44255 666.55745 170 650 170 c 0
 638.88854769 170 629.179905395 176.053916259 623.995359617 185.040462273 c 2
 500 399.965752276 l 1
 376.004640383 185.040462273 l 2
 370.820094605 176.053916259 361.11145231 170 350 170 c 0
 333.44255 170 320 183.44255 320 200 c 0
 320 205.44599769 321.454285459 210.555009185 323.995359617 214.959537727 c 2
 473.995359617 474.959537727 l 2
 479.179905395 483.946083741 488.88854769 490 500 490 c 0
 511.11145231 490 520.820094605 483.946083741 526.004640383 474.959537727 c 2
 620 312.034247724 l 1
 620 700 l 2
EndSplineSet
EndChar

StartChar: NameMe.28
Encoding: 28 -1 9
Width: 1000
Flags: H
LayerCount: 2
Fore
SplineSet
350 177 m 1
 650 350 l 9
 350 523 l 1025
350 147 m 0
 333.44255 147 320 160.44255 320 177 c 0
 320 188.113512001 326.056160854 197.823693872 335.04545999 203.00752304 c 2
 589.945709053 350 l 1
 335.04545999 496.99247696 l 2
 326.056160854 502.176306128 320 511.886487999 320 523 c 0
 320 539.55745 333.44255 553 350 553 c 0
 355.443937999 553 360.551144653 551.546814363 364.95454001 549.00752304 c 2
 664.95454001 376.00752304 l 2
 673.943839146 370.823693872 680 361.113512001 680 350 c 0
 680 338.886487999 673.943839146 329.176306128 664.95454001 323.99247696 c 2
 364.95454001 150.99247696 l 2
 360.551144653 148.453185637 355.443937999 147 350 147 c 0
EndSplineSet
EndChar

StartChar: NameMe.29
Encoding: 29 -1 10
Width: 1000
Flags: H
LayerCount: 2
Back
SplineSet
650 700 m 1028
610 700 m 4
 610 722.076171875 627.923828125 740 650 740 c 4
 672.076171875 740 690 722.076171875 690 700 c 4
 690 677.923828125 672.076171875 660 650 660 c 4
 627.923828125 660 610 677.923828125 610 700 c 4
EndSplineSet
Fore
SplineSet
650 700 m 1028
610 700 m 4
 610 722.076171875 627.923828125 740 650 740 c 4
 672.076171875 740 690 722.076171875 690 700 c 4
 690 677.923828125 672.076171875 660 650 660 c 4
 627.923828125 660 610 677.923828125 610 700 c 4
650 250 m 1
 350 250 l 1025
350 -50 m 1
 650 -50 l 1
 650 500 l 1025
350 -80 m 2
 333.44255 -80 320 -66.55745 320 -50 c 0
 320 -33.44255 333.44255 -20 350 -20 c 2
 620 -20 l 1
 620 220 l 1
 350 220 l 2
 333.44255 220 320 233.44255 320 250 c 0
 320 266.55745 333.44255 280 350 280 c 2
 620 280 l 1
 620 500 l 2
 620 516.55745 633.44255 530 650 530 c 0
 666.55745 530 680 516.55745 680 500 c 0
 680 -50 680 -50 680 -50 c 2
 680 -66.55745 666.55745 -80 650 -80 c 2
 350 -80 l 2
EndSplineSet
EndChar

StartChar: NameMe.30
Encoding: 30 -1 11
Width: 1000
Flags: H
LayerCount: 2
Fore
SplineSet
500 700 m 1024
460 700 m 0
 460 722.076171875 477.923828125 740 500 740 c 0
 522.076171875 740 540 722.076171875 540 700 c 0
 540 677.923828125 522.076171875 660 500 660 c 0
 477.923828125 660 460 677.923828125 460 700 c 0
500 200 m 1
 500 500 l 1025
300 500 m 1
 500 200 l 1
 700 500 l 1025
270 500 m 0
 270 516.55745 283.44255 530 300 530 c 0
 310.416422494 530 319.600040015 524.679751359 324.979409486 516.610697152 c 2
 470 299.079811381 l 1
 470 500 l 2
 470 516.55745 483.44255 530 500 530 c 0
 516.55745 530 530 516.55745 530 500 c 2
 530 299.079811381 l 1
 675.020590514 516.610697152 l 2
 680.399959985 524.679751359 689.583577506 530 700 530 c 0
 716.55745 530 730 516.55745 730 500 c 0
 730 493.858972494 728.150829991 488.146433605 724.979409486 483.389302848 c 2
 524.979409486 183.389302848 l 2
 519.600040015 175.320248641 510.416422494 170 500 170 c 0
 489.583577506 170 480.399959985 175.320248641 475.020590514 183.389302848 c 2
 275.020590514 483.389302848 l 2
 271.849170009 488.146433605 270 493.858972494 270 500 c 0
EndSplineSet
EndChar

StartChar: NameMe.31
Encoding: 31 -1 12
Width: 1000
Flags: H
LayerCount: 2
Fore
SplineSet
650 350 m 1
 350 200 l 1025
350 575 m 1
 470 635 l 10
 533 667 618 676 650 612.5 c 24
 682 549 623 487 560 455 c 18
 350 350 l 1025
564.410706451 689.743657494 m 0
 647.580110849 689.743657494 688.984603877 629.490071562 688.984603877 575.962584407 c 0
 688.984603877 513.456319168 635.024917165 459.457705659 573.387363237 428.149741756 c 2
 363.38726135 323.149690005 l 2
 359.356433252 321.134275956 354.809633514 320 350 320 c 0
 333.44255 320 320 333.44255 320 350 c 0
 320 361.747816486 326.767200804 371.927541071 336.61273865 376.850309995 c 2
 546.61273865 481.850309995 l 6
 571.7831281 494.43550472 595.676080059 512.813205666 610.869862223 532.059923519 c 0
 623.105436303 547.559332392 628.984603877 562.66980471 628.984603877 575.962584407 c 0
 628.984603877 583.182222086 627.408698429 590.660940282 623.191874752 599.028699765 c 0
 612.356066595 620.531006577 593.383276756 629.743657494 564.410706451 629.743657494 c 0
 539.493804788 629.743657494 509.336181489 621.329422147 483.556278344 608.234868169 c 2
 363.38726135 548.149690005 l 2
 359.356433252 546.134275956 354.809633514 545 350 545 c 0
 333.44255 545 320 558.44255 320 575 c 0
 320 586.747816486 326.767200804 596.927541071 336.61273865 601.850309995 c 2
 456.443721656 661.765131831 l 2
 489.126239662 678.365775898 526.903549876 689.743657494 564.410706451 689.743657494 c 0
650 380 m 0
 666.55745 380 680 366.55745 680 350 c 0
 680 338.252183514 673.232799196 328.072458929 663.38726135 323.149690005 c 2
 363.38726135 173.149690005 l 2
 359.356433252 171.134275956 354.809633514 170 350 170 c 0
 333.44255 170 320 183.44255 320 200 c 0
 320 211.747816486 326.767200804 221.927541071 336.61273865 226.850309995 c 2
 636.61273865 376.850309995 l 2
 640.643566748 378.865724044 645.190366486 380 650 380 c 0
EndSplineSet
EndChar

StartChar: NameMe.32
Encoding: 32 -1 13
Width: 1000
Flags: HW
LayerCount: 2
Fore
SplineSet
350 200 m 1
 500 460 l 9
 650 200 l 1025
350 170 m 0
 333.44255 170 320 183.44255 320 200 c 0
 320 205.44599769 321.454285459 210.555009185 323.995359617 214.959537727 c 2
 473.995359617 474.959537727 l 2
 479.179905395 483.946083741 488.88854769 490 500 490 c 0
 511.11145231 490 520.820094605 483.946083741 526.004640383 474.959537727 c 2
 676.004640383 214.959537727 l 2
 678.545714541 210.555009185 680 205.44599769 680 200 c 0
 680 183.44255 666.55745 170 650 170 c 0
 638.88854769 170 629.179905395 176.053916259 623.995359617 185.040462273 c 2
 500 399.965752276 l 1
 376.004640383 185.040462273 l 2
 370.820094605 176.053916259 361.11145231 170 350 170 c 0
EndSplineSet
EndChar

StartChar: NameMe.33
Encoding: 33 -1 14
Width: 1000
Flags: H
LayerCount: 2
Fore
SplineSet
350 700 m 5
 650 575 l 29
 350 450 l 29
 650 325 l 29
 350 200 l 1029
680 325 m 0
 680 312.522692271 672.366274686 301.814267007 661.518432694 297.294332843 c 2
 361.518432694 172.294332843 l 2
 357.9711339 170.816291679 354.080142271 170 350 170 c 0
 333.44255 170 320 183.44255 320 200 c 0
 320 212.477307729 327.633725314 223.185732993 338.481567306 227.705667157 c 2
 571.98796613 325 l 1
 338.481567306 422.294332843 l 2
 327.633725314 426.814267007 320 437.522692271 320 450 c 0
 320 462.477307729 327.633725314 473.185732993 338.481567306 477.705667157 c 2
 571.98796613 575 l 1
 338.481567306 672.294332843 l 2
 327.633725314 676.814267007 320 687.522692271 320 700 c 0
 320 716.55745 333.44255 730 350 730 c 0
 354.080142271 730 357.9711339 729.183708321 361.518432694 727.705667157 c 2
 661.518432694 602.705667157 l 2
 672.366274686 598.185732993 680 587.477307729 680 575 c 0
 680 562.522692271 672.366274686 551.814267007 661.518432694 547.294332843 c 2
 428.01203387 450 l 1
 661.518432694 352.705667157 l 2
 672.366274686 348.185732993 680 337.477307729 680 325 c 0
EndSplineSet
EndChar

StartChar: NameMe.34
Encoding: 34 -1 15
Width: 1000
Flags: HW
LayerCount: 2
Back
SplineSet
530 550 m 25
 530 150 l 1025
500 550 m 2
 500 566.55745 513.44255 580 530 580 c 0
 546.55745 580 560 566.55745 560 550 c 2
 560 150 l 2
 560 133.44255 546.55745 120 530 120 c 0
 513.44255 120 500 133.44255 500 150 c 2
 500 550 l 2
EndSplineSet
Fore
SplineSet
725 3 m 1
 505 223 l 1
 482 208 454 200 425 200 c 0
 342 200 275 267 275 350 c 0
 275 433 342 500 425 500 c 0
 454 500 482 492 505 477 c 1024
488.592918979 248.114054875 m 0
 493.309044846 251.203113152 498.946310509 253.000000407 505 253 c 0
 505.484982919 253 505.967293386 252.988466858 506.446671851 252.965659899 c 0
 514.17565467 252.597948454 521.130702451 249.287266299 526.259361769 244.158606981 c 2
 746.208984375 24.208984375 l 2
 751.639648438 18.7783203125 755 11.2783203125 755 3 c 0
 755 -13.5576171875 741.557617188 -27 725 -27 c 0
 716.721679688 -27 709.221679688 -23.6396484375 703.791015625 -18.208984375 c 2
 499.66232247 185.91970878 l 1
 476.576369187 175.368227974 451.073670289 170 425 170 c 0
 325.472659115 170 245 250.472659115 245 350 c 0
 245 449.527340885 325.472659115 530 425 530 c 0
 459.553793767 530 493.104817185 520.572032305 521.357119654 502.146617652 c 0
 529.568102847 496.791628613 535 487.525152358 535 477 c 0
 535 460.44255 521.55745 447 505 447 c 0
 498.967702358 447 493.348854461 448.784268795 488.642880346 451.853382348 c 0
 470.895182815 463.427967695 448.446206233 470 425 470 c 0
 358.527340885 470 305 416.472659115 305 350 c 0
 305 283.527340885 358.527340885 230 425 230 c 0
 448.424210521 230 470.853061585 236.559707179 488.592918979 248.114054875 c 0
EndSplineSet
EndChar

StartChar: NameMe.44
Encoding: 44 -1 16
Width: 1000
Flags: HW
LayerCount: 2
Back
SplineSet
500 750 m 1
 500 200 l 1025
250 200 m 1
 250 500 l 1
 750 500 l 1
 750 200 l 1025
EndSplineSet
Fore
SplineSet
500 750 m 1
 500 200 l 1025
250 200 m 1
 250 475 l 1
 750 475 l 1
 750 200 l 1025
470 750 m 2
 470 758.019499645 483.44255 780 500 780 c 0
 516.55745 780 530 758.019499645 530 750 c 2
 530 505 l 1
 750 505 l 2
 766.557617188 505 780 491.557617188 780 475 c 2
 780 200 l 2
 780 189.470917621 766.55745 170 750 170 c 0
 733.44255 170 720 190.29938274 720 200 c 2
 720 445 l 1
 530 445 l 1
 530 200 l 2
 530 190.29938274 516.55745 170 500 170 c 0
 483.44255 170 470 190.29938274 470 200 c 2
 470 445 l 1
 280 445 l 1
 280 200 l 2
 280 190.29938274 266.55745 170 250 170 c 0
 233.44255 170 220 189.470917621 220 200 c 2
 220 475 l 2
 220 491.557617188 233.442382812 505 250 505 c 2
 470 505 l 1
 470 750 l 2
EndSplineSet
EndChar

StartChar: NameMe.42
Encoding: 42 -1 17
Width: 1000
Flags: H
LayerCount: 2
Fore
SplineSet
225 475 m 5
 775 475 l 1029
341.745266834 700 m 1029
658.254733166 700 m 1029
658.254733166 700 m 5
 728.893974416 650.252399635 775 568.061462996 775 475 c 12
 775 323 652 200 500 200 c 28
 348 200 225 323 225 475 c 20
 225 568.061462996 271.106025584 650.252399635 341.745266834 700 c 1029
628.254733166 700 m 4
 628.254733166 716.55745 641.697283166 730 658.254733166 730 c 4
 664.671396556 730 670.620243248 727.981107147 675.500170199 724.544424483 c 4
 753.870826426 669.351984455 805 578.167615712 805 475 c 4
 805 306.459793205 668.540206795 170 500 170 c 4
 331.459793205 170 195 306.459793205 195 475 c 4
 195 578.163882134 246.12547297 669.345384619 324.491321806 724.53843153 c 4
 329.372841527 727.978760374 335.324873625 730 341.745266834 730 c 4
 358.302716834 730 371.745266834 716.55745 371.745266834 700 c 4
 371.745266834 689.85921339 366.702858125 680.886850842 358.990703866 675.455575517 c 6
 358.983138614 675.45024846 l 6
 303.782544535 636.572182736 265.388203452 575.44516169 256.812684573 505 c 5
 743.187315427 505 l 5
 734.611796089 575.445161037 696.217455006 636.572182083 641.009296134 675.455575517 c 4
 633.297141875 680.886850842 628.254733166 689.85921339 628.254733166 700 c 4
500 230 m 4
 625.302300458 230 728.426449733 323.728319132 743.187490429 445 c 5
 256.812509571 445 l 5
 271.573550267 323.728319132 374.697699542 230 500 230 c 4
EndSplineSet
EndChar

StartChar: NameMe.47
Encoding: 47 -1 18
Width: 1000
Flags: H
LayerCount: 2
Fore
SplineSet
250 200 m 9
 500 475 l 9
 250 750 l 1
 700 750 l 1
 700 200 l 1025
250 170 m 0
 233.44255 170 220 183.44255 220 200 c 0
 220 207.762030705 222.954237923 214.839507088 227.79870006 220.168415439 c 2
 459.463776934 475 l 1
 227.79870006 729.831584561 l 2
 222.954237923 735.160492912 220 742.237969295 220 750 c 0
 220 766.55745 233.44255 780 250 780 c 0
 700 780 700 780 700 780 c 2
 716.55745 780 730 766.55745 730 750 c 2
 730 200 l 2
 730 183.44255 716.55745 170 700 170 c 0
 683.44255 170 670 183.44255 670 200 c 2
 670 720 l 1
 317.808950339 720 l 1
 522.20129994 495.168415439 l 2
 527.045762077 489.839507088 530 482.762030705 530 475 c 0
 530 467.237969295 527.045762077 460.160492912 522.20129994 454.831584561 c 2
 272.20129994 179.831584561 l 2
 266.711876184 173.793218429 258.795419295 170 250 170 c 0
EndSplineSet
EndChar

StartChar: NameMe.55
Encoding: 55 -1 19
Width: 1000
Flags: H
LayerCount: 2
Fore
SplineSet
650 750 m 5
 350 400 l 1053
350 750 m 29
 350 200 l 1029
320 750 m 6
 320 766.557617188 333.442382812 780 350 780 c 4
 366.557617188 780 380 766.557617188 380 750 c 6
 380 466.10546875 l 5
 630.259765625 772.583007812 l 6
 634.684570312 778.002929688 642.444335938 780 650 780 c 4
 666.557617188 780 680 766.557617188 680 750 c 4
 680 740.999023438 675.139648438 733.771484375 669.740234375 727.416992188 c 6
 380 386.39453125 l 5
 380 200 l 6
 380 183.442382812 366.557617188 170 350 170 c 4
 333.442382812 170 320 183.442382812 320 200 c 4
 320 750 320 750 320 750 c 6
EndSplineSet
EndChar

StartChar: NameMe.52
Encoding: 52 -1 20
Width: 1000
Flags: HW
LayerCount: 2
Fore
SplineSet
350 750 m 5
 650 612.5 l 25
 350 475 l 25
 650 337.5 l 25
 350 200 l 1025
680 337.5 m 0
 680 325.392450037 672.812012788 314.950496361 662.474258261 310.212358869 c 2
 362.474258261 172.712358869 l 2
 358.674812924 170.970946423 354.449900037 170 350 170 c 0
 333.44255 170 320 183.44255 320 200 c 0
 320 212.107549963 327.187987212 222.549503639 337.525741739 227.287641131 c 2
 577.989070181 337.5 l 1
 337.525741739 447.712358869 l 2
 327.187987212 452.450496361 320 462.892450037 320 475 c 0
 320 487.107549963 327.187987212 497.549503639 337.525741739 502.287641131 c 2
 577.989070181 612.5 l 1
 337.525741739 722.712358869 l 2
 327.187987212 727.450496361 320 737.892450037 320 750 c 0
 320 766.55745 333.44255 780 350 780 c 0
 354.449900037 780 358.674812924 779.029053577 362.474258261 777.287641131 c 2
 662.474258261 639.787641131 l 2
 672.812012788 635.049503639 680 624.607549963 680 612.5 c 0
 680 600.392450037 672.812012788 589.950496361 662.474258261 585.212358869 c 2
 422.010929819 475 l 1
 662.474258261 364.787641131 l 2
 672.812012788 360.049503639 680 349.607549963 680 337.5 c 0
EndSplineSet
EndChar

StartChar: NameMe.39
Encoding: 39 -1 21
Width: 1000
Flags: H
LayerCount: 2
Back
SplineSet
400 800 m 25
 825 480 l 1053
500 675 m 24
 390 675 300 585 300 475 c 24
 300 365 390 275 500 275 c 24
 610 275 700 365 700 475 c 24
 700 585 610 675 500 675 c 24
EndSplineSet
Fore
SplineSet
500 675 m 28
 390 675 300 585 300 475 c 28
 300 365 390 275 500 275 c 28
 610 275 700 365 700 475 c 28
 700 585 610 675 500 675 c 28
500 705 m 0
 626.598100843 705 730 601.598100843 730 475 c 0
 730 348.401899157 626.598100843 245 500 245 c 0
 373.401899157 245 270 348.401899157 270 475 c 0
 270 601.598100843 373.401899157 705 500 705 c 0
500 645 m 0
 406.598100843 645 330 568.401899157 330 475 c 0
 330 381.598100843 406.598100843 305 500 305 c 0
 593.401899157 305 670 381.598100843 670 475 c 0
 670 568.401899157 593.401899157 645 500 645 c 0
EndSplineSet
EndChar

StartChar: O
Encoding: 39 79 22
Width: 1000
Flags: H
LayerCount: 2
Back
SplineSet
379 316 m 1
 600 150 l 1049
400 800 m 1
 621 634 l 1049
500 675 m 24
 390 675 300 585 300 475 c 24
 300 365 390 275 500 275 c 24
 610 275 700 365 700 475 c 24
 700 585 610 675 500 675 c 24
EndSplineSet
Fore
SplineSet
500 645 m 0
 406.598100843 645 330 568.401899157 330 475 c 0
 330 381.598100843 406.598100843 305 500 305 c 0
 593.401899157 305 670 381.598100843 670 475 c 0
 670 568.401899157 593.401899157 645 500 645 c 0
370 800 m 0
 370 816.55745 383.44255 830 400 830 c 0
 406.747771996 830 412.978201675 827.767376174 417.992248513 824.001169047 c 2
 636.458363837 659.904448939 l 2
 637.288352653 659.289642036 638.114095255 658.669396535 638.935537975 658.043766102 c 2
 638.992248513 658.001169047 l 2
 639.137411084 657.892132907 639.281554119 657.781811363 639.424658651 657.670218761 c 0
 694.40947606 615.561677514 730.000002003 549.27286064 730 475 c 0
 730 355.842400314 638.395327489 257.234524339 522.064846276 246.055235885 c 1
 617.992248513 174.001169047 l 2
 625.281496729 168.525987129 630 159.809678004 630 150 c 0
 630 133.44255 616.55745 120 600 120 c 0
 593.252228004 120 587.021798325 122.232623826 582.007751487 125.998830953 c 2
 363.541636163 290.095551061 l 2
 362.711647347 290.710357964 361.885904745 291.330603465 361.064462025 291.956233898 c 2
 361.007751487 291.998830953 l 2
 360.862588916 292.107867093 360.718445881 292.218188638 360.575341348 292.32978124 c 0
 305.590523939 334.438322487 269.999997997 400.72713936 270 475 c 0
 270 594.157599686 361.604672511 692.765475661 477.935153724 703.944764115 c 1
 382.007751487 775.998830953 l 2
 374.718503271 781.474012871 370 790.190321996 370 800 c 0
EndSplineSet
EndChar

StartChar: NameMe.56
Encoding: 56 -1 23
Width: 1000
Flags: HW
LayerCount: 2
Back
SplineSet
300 475 m 5
 700 475 l 1029
700 750 m 5
 300 475 l 5
 700 200 l 1029
EndSplineSet
Fore
SplineSet
300 475 m 5
 700 475 l 1029
700 750 m 5
 300 475 l 5
 700 200 l 1029
700 780 m 0
 716.55745 780 730 766.55745 730 750 c 0
 730 739.737499841 724.835823111 730.671639797 716.966594788 725.261545325 c 2
 396.586165224 505 l 1
 700 505 l 2
 716.55745 505 730 491.55745 730 475 c 0
 730 458.44255 716.55745 445 700 445 c 2
 396.586165224 445 l 1
 716.966594788 224.738454675 l 2
 724.835823111 219.328360203 730 210.262500159 730 200 c 0
 730 183.44255 716.55745 170 700 170 c 0
 693.705050159 170 687.86033791 171.943029095 683.033405212 175.261545325 c 2
 283.033405212 450.261545325 l 2
 275.164176889 455.671639797 270 464.737499841 270 475 c 0
 270 485.262500159 275.164176889 494.328360203 283.033405212 499.738454675 c 2
 683.033405212 774.738454675 l 2
 687.86033791 778.056970905 693.705050159 780 700 780 c 0
EndSplineSet
EndChar

StartChar: NameMe.45
Encoding: 45 -1 24
Width: 1000
Flags: H
LayerCount: 2
Fore
SplineSet
700 750 m 1
 700 200 l 1025
500 750 m 1
 500 200 l 1025
300 475 m 1
 500 475 l 1025
300 445 m 2
 283.44255 445 270 458.44255 270 475 c 0
 270 491.55745 283.44255 505 300 505 c 2
 470 505 l 1
 470 750 l 2
 470 766.55745 483.44255 780 500 780 c 0
 516.55745 780 530 766.55745 530 750 c 0
 530 566.666666667 530 383.333333333 530 200 c 0
 530 183.44255 516.55745 170 500 170 c 0
 483.44255 170 470 183.44255 470 200 c 2
 470 445 l 1
 300 445 l 2
670 750 m 2
 670 766.55745 683.44255 780 700 780 c 0
 716.55745 780 730 766.55745 730 750 c 2
 730 200 l 2
 730 183.44255 716.55745 170 700 170 c 0
 683.44255 170 670 183.44255 670 200 c 2
 670 750 l 2
EndSplineSet
EndChar

StartChar: NameMe.57
Encoding: 57 -1 25
Width: 1000
Flags: HW
LayerCount: 2
Back
SplineSet
300 475 m 5
 700 475 l 5
 700 200 l 1029
300 750 m 5
 700 750 l 1029
EndSplineSet
Fore
SplineSet
300 475 m 5
 700 475 l 5
 700 200 l 1029
300 750 m 5
 700 750 l 1029
300 720 m 2
 283.44255 720 270 733.44255 270 750 c 0
 270 766.55745 283.44255 780 300 780 c 2
 700 780 l 2
 716.55745 780 730 766.55745 730 750 c 0
 730 733.44255 716.55745 720 700 720 c 2
 300 720 l 2
670 445 m 1
 300 445 l 2
 283.44255 445 270 458.44255 270 475 c 0
 270 491.55745 283.44255 505 300 505 c 2
 700 505 l 2
 716.55745 505 730 491.55745 730 475 c 2
 730 200 l 2
 730 183.44255 716.55745 170 700 170 c 0
 683.44255 170 670 183.44255 670 200 c 2
 670 445 l 1
EndSplineSet
EndChar

StartChar: NameMe.58
Encoding: 58 -1 26
Width: 1000
Flags: HW
LayerCount: 2
Fore
SplineSet
471 515 m 5
 700 200 l 1025
600 750 m 1
 300 200 l 1025
600 780 m 0
 616.55745 780 630 766.55745 630 750 c 0
 630 744.809883454 628.679163759 739.925830326 626.355583086 735.665932425 c 2
 506.889741428 516.645222718 l 1
 724.280889046 217.613731453 l 2
 727.877667385 212.66619793 730 206.578991815 730 200 c 0
 730 183.44255 716.55745 170 700 170 c 0
 690.021541815 170 681.174400043 174.882268273 675.719110954 182.386268547 c 2
 475.094709759 458.354331326 l 1
 326.355583086 185.665932425 l 2
 321.266503471 176.33595313 311.367333454 170 300 170 c 0
 283.44255 170 270 183.44255 270 200 c 0
 270 205.190116546 271.320836241 210.074169674 273.644416914 214.334067575 c 2
 573.644416914 764.334067575 l 2
 578.733496529 773.66404687 588.632666546 780 600 780 c 0
EndSplineSet
EndChar

StartChar: NameMe.38
Encoding: 38 -1 27
Width: 1000
Flags: HW
LayerCount: 2
Fore
SplineSet
650 750 m 1
 350 475 l 5
 650 200 l 1025
650 780 m 0
 666.55745 780 680 766.55745 680 750 c 0
 680 741.249438015 676.245374313 733.368895747 670.260628423 727.882878682 c 2
 394.388397134 475 l 1
 670.260628423 222.117121318 l 2
 676.245374313 216.631104253 680 208.750561985 680 200 c 0
 680 183.44255 666.55745 170 650 170 c 0
 642.193111985 170 635.078713328 172.988482076 629.739371577 177.882878682 c 2
 329.739371577 452.882878682 l 2
 323.754625687 458.368895747 320 466.249438015 320 475 c 0
 320 483.750561985 323.754625687 491.631104253 329.739371577 497.117121318 c 2
 629.739371577 772.117121318 l 2
 635.078713328 777.011517924 642.193111985 780 650 780 c 0
EndSplineSet
EndChar

StartChar: NameMe.43
Encoding: 43 -1 28
Width: 1000
Flags: HW
LayerCount: 2
Back
SplineSet
300 200 m 5
 700 200 l 1028
300 475 m 13
 700 475 l 1053
300 750 m 5
 700 750 l 1028
EndSplineSet
Fore
SplineSet
300 200 m 5
 700 200 l 1028
300 475 m 13
 700 475 l 1053
300 750 m 5
 700 750 l 1028
300 720 m 2
 283.44255 720 270 733.44255 270 750 c 0
 270 766.55745 283.44255 780 300 780 c 2
 700 780 l 2
 716.55745 780 730 766.55745 730 750 c 0
 730 733.44255 716.55745 720 700 720 c 2
 300 720 l 2
300 445 m 2
 283.44255 445 270 458.44255 270 475 c 0
 270 491.55745 283.44255 505 300 505 c 2
 700 505 l 2
 716.55745 505 730 491.55745 730 475 c 0
 730 458.44255 716.55745 445 700 445 c 2
 300 445 l 2
300 170 m 2
 283.44255 170 270 183.44255 270 200 c 0
 270 216.55745 283.44255 230 300 230 c 2
 700 230 l 2
 716.55745 230 730 216.55745 730 200 c 0
 730 183.44255 716.55745 170 700 170 c 2
 300 170 l 2
EndSplineSet
EndChar

StartChar: NameMe.59
Encoding: 59 -1 29
Width: 1000
Flags: HW
LayerCount: 2
Fore
SplineSet
400 750 m 1
 700 200 l 1
 300 200 l 1
 400 475 l 1025
370 750 m 0
 370 766.55745 383.44255 780 400 780 c 0
 411.367333454 780 421.266503471 773.66404687 426.355583086 764.334067575 c 2
 726.355583086 214.334067575 l 2
 728.679163759 210.074169674 730 205.190116546 730 200 c 0
 730 183.44255 716.55745 170 700 170 c 2
 300 170 l 2
 283.44255 170 270 183.44255 270 200 c 0
 270 203.595933415 270.634042017 207.044946977 271.796333259 210.241247893 c 2
 371.796333259 485.241247893 l 2
 375.985803828 496.762291957 387.038483415 505 400 505 c 0
 416.55745 505 430 491.55745 430 475 c 0
 430 471.404066585 429.365957983 467.955053023 428.203666741 464.758752107 c 2
 342.836847793 230 l 1
 649.462198237 230 l 1
 373.644416914 735.665932425 l 2
 371.320836241 739.925830326 370 744.809883454 370 750 c 0
EndSplineSet
EndChar

StartChar: NameMe.71
Encoding: 71 -1 30
Width: 1000
Flags: H
LayerCount: 2
Back
SplineSet
750 750 m 5
 750 200 l 1029
750 613 m 29
 500 463 l 5
 250 613 l 1029
250 750 m 5
 250 200 l 1029
EndSplineSet
Fore
SplineSet
750 750 m 1
 750 200 l 1025
750 613 m 25
 500 463 l 1
 250 613 l 1025
250 750 m 1
 250 200 l 1025
220 750 m 2
 220 766.55745 233.44255 780 250 780 c 0
 266.55745 780 280 766.55745 280 750 c 2
 280 629.985501853 l 1
 500 497.985501853 l 1
 720 629.985501853 l 1
 720 750 l 2
 720 766.55745 733.44255 780 750 780 c 0
 766.55745 780 780 766.55745 780 750 c 0
 780 200 780 200 780 200 c 2
 780 183.44255 766.55745 170 750 170 c 0
 733.44255 170 720 183.44255 720 200 c 2
 720 560.014498147 l 1
 515.402729935 437.256136108 l 2
 510.899214623 434.554026921 505.629656426 433 500 433 c 0
 494.370343574 433 489.100785377 434.554026921 484.597270065 437.256136108 c 2
 280 560.014498147 l 1
 280 200 l 2
 280 183.44255 266.55745 170 250 170 c 0
 233.44255 170 220 183.44255 220 200 c 2
 220 750 l 2
EndSplineSet
EndChar

StartChar: G
Encoding: 60 71 31
Width: 1000
Flags: H
LayerCount: 2
Back
SplineSet
745 720 m 5
 450 720 l 14
 328 720 255 597 255 475 c 28
 255 353 328 230 450 230 c 22
 745 230 l 5
 745 720 l 5
450 170 m 14
 295 170 195 320 195 475 c 28
 195 630 295 780 450 780 c 22
 805 780 l 21
 805 170 l 29
 450 170 l 14
775 475 m 5
 500 475 l 1029
775 505 m 14
 792 505 805 492 805 475 c 28
 805 458 792 445 775 445 c 22
 500 445 l 14
 483 445 470 458 470 475 c 28
 470 492 483 505 500 505 c 22
 775 505 l 14
EndSplineSet
Fore
SplineSet
450 170 m 2
 295 170 195 320 195 475 c 0
 195 630 295 780 450 780 c 2
 805 780 l 1
 805 170 l 1
 450 170 l 2
745 720 m 1
 450 720 l 2
 328 720 255 597 255 475 c 0
 255 353 328 230 450 230 c 2
 745 230 l 1
 745 445 l 1
 500 445 l 2
 483 445 470 458 470 475 c 0
 470 492 483 505 500 505 c 2
 745 505 l 1
 745 720 l 1
EndSplineSet
EndChar

StartChar: NameMe.61
Encoding: 61 -1 32
Width: 1000
Flags: HW
LayerCount: 2
Fore
SplineSet
225 200 m 29
 500 750 l 13
 775 200 l 1029
225 750 m 25
 500 200 l 9
 775 750 l 1025
195 750 m 0
 195 766.55745 208.44255 780 225 780 c 0
 236.747816486 780 246.927541071 773.232799196 251.850309995 763.38726135 c 2
 362.5 542.087881339 l 1
 473.149690005 763.38726135 l 2
 478.072458929 773.232799196 488.252183514 780 500 780 c 0
 511.747816486 780 521.927541071 773.232799196 526.850309995 763.38726135 c 2
 637.5 542.087881339 l 1
 748.149690005 763.38726135 l 2
 753.072458929 773.232799196 763.252183514 780 775 780 c 0
 791.55745 780 805 766.55745 805 750 c 0
 805 745.190366486 803.865724044 740.643566748 801.850309995 736.61273865 c 2
 671.04394067 475 l 1
 801.850309995 213.38726135 l 2
 803.865724044 209.356433252 805 204.809633514 805 200 c 0
 805 183.44255 791.55745 170 775 170 c 0
 763.252183514 170 753.072458929 176.767200804 748.149690005 186.61273865 c 2
 637.5 407.912118661 l 1
 526.850309995 186.61273865 l 2
 521.927541071 176.767200804 511.747816486 170 500 170 c 0
 488.252183514 170 478.072458929 176.767200804 473.149690005 186.61273865 c 2
 362.5 407.912118661 l 1
 251.850309995 186.61273865 l 2
 246.927541071 176.767200804 236.747816486 170 225 170 c 0
 208.44255 170 195 183.44255 195 200 c 0
 195 204.809633514 196.134275956 209.356433252 198.149690005 213.38726135 c 2
 328.95605933 475 l 1
 198.149690005 736.61273865 l 2
 196.134275956 740.643566748 195 745.190366486 195 750 c 0
603.95605933 475 m 1
 500 682.912118661 l 1
 396.04394067 475 l 1
 500 267.087881339 l 1
 603.95605933 475 l 1
EndSplineSet
EndChar

StartChar: NameMe.62
Encoding: 62 -1 33
Width: 1000
Flags: HW
LayerCount: 2
Fore
SplineSet
775 600 m 25
 575 200 l 9
 575 750 l 1049
225 600 m 25
 425 200 l 9
 425 750 l 1049
195 600 m 0
 195 616.55745 208.44255 630 225 630 c 0
 236.747816486 630 246.927541071 623.232799196 251.850309995 613.38726135 c 2
 395 327.087881339 l 1
 395 750 l 2
 395 766.55745 408.44255 780 425 780 c 0
 441.55745 780 455 766.55745 455 750 c 2
 455 200 l 2
 455 183.44255 441.55745 170 425 170 c 0
 413.252183514 170 403.072458929 176.767200804 398.149690005 186.61273865 c 2
 198.149690005 586.61273865 l 2
 196.134275956 590.643566748 195 595.190366486 195 600 c 0
775 630 m 0
 791.55745 630 805 616.55745 805 600 c 0
 805 595.190366486 803.865724044 590.643566748 801.850309995 586.61273865 c 2
 601.850309995 186.61273865 l 2
 596.927541071 176.767200804 586.747816486 170 575 170 c 0
 558.44255 170 545 183.44255 545 200 c 2
 545 750 l 2
 545 766.55745 558.44255 780 575 780 c 0
 591.55745 780 605 766.55745 605 750 c 2
 605 327.087881339 l 1
 748.149690005 613.38726135 l 2
 753.072458929 623.232799196 763.252183514 630 775 630 c 0
EndSplineSet
EndChar

StartChar: NameMe.63
Encoding: 63 -1 34
Width: 1000
Flags: HW
LayerCount: 2
Fore
SplineSet
425 200 m 25
 700 475 l 1024
300 475 m 25
 575 750 l 1024
300 445 m 0
 283.44255 445 270 458.44255 270 475 c 0
 270 483.278725 273.3606375 490.778725 278.79095625 496.20904375 c 2
 553.79095625 771.20904375 l 2
 559.221275 776.6393625 566.721275 780 575 780 c 0
 591.55745 780 605 766.55745 605 750 c 0
 605 741.721275 601.6393625 734.221275 596.20904375 728.79095625 c 2
 321.20904375 453.79095625 l 2
 315.778725 448.3606375 308.278725 445 300 445 c 0
425 170 m 0
 408.44255 170 395 183.44255 395 200 c 0
 395 208.278725 398.3606375 215.778725 403.79095625 221.20904375 c 2
 678.79095625 496.20904375 l 2
 684.221275 501.6393625 691.721275 505 700 505 c 0
 716.55745 505 730 491.55745 730 475 c 0
 730 466.721275 726.6393625 459.221275 721.20904375 453.79095625 c 2
 446.20904375 178.79095625 l 2
 440.778725 173.3606375 433.278725 170 425 170 c 0
EndSplineSet
EndChar

StartChar: NameMe.64
Encoding: 64 -1 35
Width: 1000
Flags: H
LayerCount: 2
Fore
SplineSet
225 750 m 29
 775 750 l 1
 775 475 l 10
 775 323 652 200 500 200 c 24
 348 200 225 323 225 475 c 26
 225 613 l 1025
745 720 m 1
 225 720 l 2
 208.44255 720 195 733.44255 195 750 c 0
 195 766.55745 208.44255 780 225 780 c 2
 775 780 l 2
 791.55745 780 805 766.55745 805 750 c 2
 805 475 l 2
 805 306.459793205 668.540206795 170 500 170 c 0
 331.459793205 170 195 306.459793205 195 475 c 2
 195 613 l 2
 195 629.55745 208.44255 643 225 643 c 0
 241.55745 643 255 629.55745 255 613 c 2
 255 475 l 2
 255 339.540206795 364.540206795 230 500 230 c 0
 635.459793205 230 745 339.540206795 745 475 c 2
 745 720 l 1
EndSplineSet
EndChar

StartChar: NameMe.65
Encoding: 65 -1 36
Width: 1000
Flags: HW
LayerCount: 2
Fore
SplineSet
700 750 m 1
 500 200 l 1
 700 200 l 1025
300 750 m 1
 500 200 l 1
 300 200 l 1025
270 750 m 0
 270 766.55745 283.44255 780 300 780 c 0
 312.961516585 780 324.014196172 771.762291957 328.203666741 760.241247893 c 2
 500 287.80133143 l 1
 671.796333259 760.241247893 l 2
 675.985803828 771.762291957 687.038483415 780 700 780 c 0
 716.55745 780 730 766.55745 730 750 c 0
 730 746.404066585 729.365957983 742.955053023 728.203666741 739.758752107 c 2
 542.836847793 230 l 1
 700 230 l 2
 716.55745 230 730 216.55745 730 200 c 0
 730 183.44255 716.55745 170 700 170 c 0
 566.666666667 170 433.333333333 170 300 170 c 0
 283.44255 170 270 183.44255 270 200 c 0
 270 216.55745 283.44255 230 300 230 c 2
 457.163152207 230 l 1
 271.796333259 739.758752107 l 2
 270.634042017 742.955053023 270 746.404066585 270 750 c 0
EndSplineSet
EndChar

StartChar: NameMe.66
Encoding: 66 -1 37
Width: 1000
Flags: HW
LayerCount: 2
Fore
SplineSet
600 200 m 5
 300 750 l 5
 700 750 l 5
 600 475 l 1029
630 200 m 4
 630 183.442382812 616.557617188 170 600 170 c 4
 588.6328125 170 578.733398438 176.3359375 573.64453125 185.666015625 c 6
 273.64453125 735.666015625 l 6
 271.321289062 739.92578125 270 744.809570312 270 750 c 4
 270 766.557617188 283.442382812 780 300 780 c 6
 700 780 l 6
 716.557617188 780 730 766.557617188 730 750 c 4
 730 746.404296875 729.366210938 742.955078125 728.204101562 739.758789062 c 6
 628.204101562 464.758789062 l 6
 624.014648438 453.237304688 612.961914062 445 600 445 c 4
 583.442382812 445 570 458.442382812 570 475 c 4
 570 478.595703125 570.633789062 482.044921875 571.795898438 485.241210938 c 6
 657.163085938 720 l 5
 350.538085938 720 l 5
 626.35546875 214.333984375 l 6
 628.678710938 210.07421875 630 205.190429688 630 200 c 4
EndSplineSet
EndChar

StartChar: NameMe.67
Encoding: 67 -1 38
Width: 1000
Flags: HW
LayerCount: 2
Fore
SplineSet
700 750 m 1
 300 750 l 1
 300 200 l 1028
700 780 m 2
 716.55745 780 730 766.55745 730 750 c 0
 730 733.44255 716.55745 720 700 720 c 2
 330 720 l 1
 330 200 l 2
 330 183.44255 316.55745 170 300 170 c 0
 283.44255 170 270 183.44255 270 200 c 2
 270 750 l 2
 270 766.55745 283.44255 780 300 780 c 2
 700 780 l 2
EndSplineSet
EndChar

StartChar: NameMe.72
Encoding: 72 -1 39
Width: 1000
Flags: HW
LayerCount: 2
Back
SplineSet
500 475 m 5
 775 475 l 1029
658.254882812 250 m 1
 728.893554688 299.748046875 775 381.938476562 775 475 c 8
 775 627 652 750 500 750 c 24
 348 750 225 627 225 475 c 16
 225 381.938476562 271.106445312 299.748046875 341.745117188 250 c 1025
650 246 m 25
 350 73 l 1
 650 -100 l 1025
47 246 m 25
 -253 73 l 1
 47 -100 l 1025
47 276 m 0
 63.5576171875 276 77 262.557617188 77 246 c 0
 77 234.88671875 70.943359375 225.176757812 61.9541015625 219.9921875 c 2
 -192.9453125 73 l 1
 61.9541015625 -73.9921875 l 2
 70.943359375 -79.1767578125 77 -88.88671875 77 -100 c 0
 77 -116.557617188 63.5576171875 -130 47 -130 c 0
 41.5556640625 -130 36.44921875 -128.546875 32.0458984375 -126.0078125 c 2
 -267.954101562 46.9921875 l 2
 -276.943359375 52.1767578125 -283 61.88671875 -283 73 c 0
 -283 84.11328125 -276.943359375 93.8232421875 -267.954101562 99.0078125 c 2
 32.0458984375 272.0078125 l 2
 36.44921875 274.546875 41.5556640625 276 47 276 c 0
EndSplineSet
Fore
SplineSet
341.745117188 250 m 1025
469 475 m 0
 469 492 488 505 500 505 c 2
 743.1875 505 l 1
 728.426757812 626.271484375 625.302734375 720 500 720 c 0
 374.697265625 720 254.998461326 596.271297073 255 475 c 0
 255.000893802 404.554578698 307.951275276 318.29162454 358.983398438 274.549804688 c 0
 366.703125 269.11328125 371.745117188 260.140625 371.745117188 250 c 0
 371.745117188 233.442382812 358.302734375 220 341.745117188 220 c 0
 335.325195312 220 329.373046875 222.021484375 324.491210938 225.461914062 c 0
 246.125 280.654296875 195 371.8359375 195 475 c 0
 195 643.540039062 331.459960938 780 500 780 c 0
 668.540039062 780 805 643.540039062 805 475 c 0
 805 365.254211086 745.107664134 266.214049698 664.95454001 219.99247696 c 2
 410.054290947 73 l 1
 664.95454001 -73.9924769599 l 2
 673.943839146 -79.1763061283 680 -88.8864879989 680 -100 c 0
 680 -116.55745 666.55745 -130 650 -130 c 0
 644.556062001 -130 639.448855347 -128.546814363 635.04545999 -126.00752304 c 2
 335.04545999 46.9924769599 l 2
 326.056160854 52.1763061283 320 61.8864879989 320 73 c 0
 320 84.1135120011 326.056160854 93.8236938717 335.04545999 99.0075230401 c 2
 635.04545999 272.00752304 l 2
 693.428826149 305.675264192 734.665479497 374.999493993 743.1875 445 c 1
 500 445 l 2
 483 445 469 458 469 475 c 0
EndSplineSet
EndChar

StartChar: NameMe.74
Encoding: 74 -1 40
Width: 1000
Flags: HW
LayerCount: 2
Fore
SplineSet
350 200 m 5
 500 460 l 13
 650 200 l 1029
350 170 m 4
 333.44255 170 320 183.44255 320 200 c 4
 320 205.44599769 321.454285459 210.555009185 323.995359617 214.959537727 c 6
 473.995359617 474.959537727 l 6
 479.179905395 483.946083741 488.88854769 490 500 490 c 4
 511.11145231 490 520.820094605 483.946083741 526.004640383 474.959537727 c 6
 676.004640383 214.959537727 l 6
 678.545714541 210.555009185 680 205.44599769 680 200 c 4
 680 183.44255 666.55745 170 650 170 c 4
 638.88854769 170 629.179905395 176.053916259 623.995359617 185.040462273 c 6
 500 399.965752276 l 5
 376.004640383 185.040462273 l 6
 370.820094605 176.053916259 361.11145231 170 350 170 c 4
590 799.859375 m 0
 626.392578125 772.442382812 650 728.881835938 650 680 c 0
 650 597.40234375 582.59765625 530 500 530 c 0
 417.40234375 530 350 597.40234375 350 680 c 0
 350 728.881835938 373.607421875 772.442382812 410 799.859375 c 1024
590 799.859375 m 1025
410 799.859375 m 1025
380 680 m 0
 380 613.986328125 433.986328125 560 500 560 c 0
 566.013671875 560 620 613.986328125 620 680 c 0
 620 719.036132812 601.125976562 753.921875 571.973632812 775.883789062 c 0
 564.704101562 781.360351562 560 790.065429688 560 799.859375 c 0
 560 816.416992188 573.442382812 829.859375 590 829.859375 c 0
 596.762695312 829.859375 603.006835938 827.616210938 608.026367188 823.834960938 c 0
 651.66015625 790.962890625 680 738.728515625 680 680 c 0
 680 580.818359375 599.181640625 500 500 500 c 0
 400.818359375 500 320 580.818359375 320 680 c 0
 320 738.723632812 348.334960938 790.954101562 391.973632812 823.834960938 c 0
 396.993164062 827.616210938 403.237304688 829.859375 410 829.859375 c 0
 426.557617188 829.859375 440 816.416992188 440 799.859375 c 0
 440 790.065429688 435.295898438 781.360351562 428.026367188 775.883789062 c 0
 398.874023438 753.921875 380 719.036132812 380 680 c 0
EndSplineSet
EndChar

StartChar: NameMe.75
Encoding: 75 -1 41
Width: 1000
Flags: HW
LayerCount: 2
Fore
SplineSet
250 800 m 1
 350 700 l 1025
650 700 m 1
 750 800 l 1025
300 200 m 1
 300 600 l 10
 300 698 402 750 500 750 c 24
 598 750 700 698 700 600 c 26
 700 200 l 1025
330 200 m 2
 330 183.44255 316.55745 170 300 170 c 0
 283.44255 170 270 183.44255 270 200 c 2
 270 600 l 2
 270 639.555592654 283.993800089 674.015377297 306.531362637 701.050549863 c 1
 228.79095625 778.79095625 l 2
 223.3606375 784.221275 220 791.721275 220 800 c 0
 220 816.55745 233.44255 830 250 830 c 0
 258.278725 830 265.778725 826.6393625 271.20904375 821.20904375 c 2
 352.010451279 740.407636221 l 1
 394.971361773 767.455162 448.55904805 780 500 780 c 0
 551.44095195 780 605.028638227 767.455162 647.989548721 740.407636221 c 1
 728.79095625 821.20904375 l 2
 734.221275 826.6393625 741.721275 830 750 830 c 0
 766.55745 830 780 816.55745 780 800 c 0
 780 791.721275 776.6393625 784.221275 771.20904375 778.79095625 c 2
 693.468637363 701.050549863 l 1
 716.006199911 674.015377297 730 639.555592654 730 600 c 2
 730 200 l 2
 730 183.44255 716.55745 170 700 170 c 0
 683.44255 170 670 183.44255 670 200 c 2
 670 600 l 2
 670 613.853267098 667.951301429 644.424361384 638.115737005 672.449631443 c 0
 632.89661158 674.706362465 628.443302641 678.403388157 625.258097744 683.038420962 c 0
 593.326970431 706.207454265 546.854127489 720 500 720 c 0
 453.145871172 720 406.673026912 706.207453477 374.74189987 683.038418489 c 0
 371.556695137 678.403387106 367.103387027 674.706362529 361.884263103 672.449631514 c 0
 338.787805804 650.754568445 330 625.641825275 330 600 c 2
 330 200 l 2
EndSplineSet
EndChar

StartChar: NameMe.68.1
Encoding: 68 -1 42
Width: 1000
Flags: HW
LayerCount: 2
Fore
SplineSet
300 170 m 4
 283.44255 170 270 183.44255 270 200 c 4
 270 211.747816486 276.767200804 221.927541071 286.61273865 226.850309995 c 6
 686.61273865 426.850309995 l 6
 690.643566748 428.865724044 695.190366486 430 700 430 c 4
 716.55745 430 730 416.55745 730 400 c 4
 730 388.252183514 723.232799196 378.072458929 713.38726135 373.149690005 c 6
 313.38726135 173.149690005 l 6
 309.356433252 171.134275956 304.809633514 170 300 170 c 4
300 665 m 0
 283.442382812 665 270 678.443359375 270 695 c 0
 270 705.462890625 275.637695312 716.36328125 286.612304688 721.850585938 c 2
 511.491210938 834.647460938 l 2
 532.91843574 845.395129707 557.23828125 851.446289062 582.889648438 851.446289062 c 0
 671.196289062 851.446289062 742.889648438 779.751953125 742.889648438 691.446289062 c 0
 742.889648438 628.791015625 706.63492484 574.515890198 654.2890625 548.244140625 c 2
 313.38671875 377.149414062 l 2
 309.356445312 375.133789062 304.809570312 374 300 374 c 0
 283.442382812 374 270 387.442382812 270 404 c 0
 270 415.748046875 276.766601562 425.927734375 286.612304688 430.850585938 c 2
 627.514648438 601.9453125 l 2
 660.231202671 618.365351855 682.889648438 652.286132812 682.889648438 691.446289062 c 0
 682.889648438 746.637695312 638.081054688 791.446289062 582.889648438 791.446289062 c 0
 566.857421875 791.446289062 551.657884459 787.664680972 538.265625 780.947265625 c 2
 313.38671875 668.150390625 l 0
 309.356445312 666.134765625 304.809570312 665 300 665 c 0
EndSplineSet
EndChar
